<svg width="50" height="50" fill="none" xmlns="http://www.w3.org/2000/svg"><g clip-path="url(#clip0)" fill="#F90"><path d="M45.605 11.816h-8.467L36.047 6.36a2.938 2.938 0 00-2.873-2.355H16.826c-1.392 0-2.6.99-2.873 2.355l-1.091 5.457H4.395A4.4 4.4 0 000 16.211V41.6a4.4 4.4 0 004.395 4.395h41.21A4.4 4.4 0 0050 41.602V16.21a4.4 4.4 0 00-4.395-4.395zm-28.78-4.882h16.35l.976 4.882H15.849l.977-4.882zM47.07 41.602c0 .807-.657 1.464-1.465 1.464H4.395a1.466 1.466 0 01-1.465-1.464V16.21c0-.808.657-1.465 1.465-1.465h41.21c.808 0 1.465.657 1.465 1.465V41.6z"/><path d="M25 18.066c-5.977 0-10.84 4.863-10.84 10.84 0 5.977 4.863 10.84 10.84 10.84 5.977 0 10.84-4.863 10.84-10.84 0-5.977-4.863-10.84-10.84-10.84zm0 18.75c-4.362 0-7.91-3.548-7.91-7.91 0-4.361 3.548-7.91 7.91-7.91s7.91 3.549 7.91 7.91c0 4.362-3.548 7.91-7.91 7.91zm-12.5-18.75H7.812a1.465 1.465 0 000 2.93H12.5a1.465 1.465 0 000-2.93z"/></g><defs><clipPath id="clip0"><path fill="#fff" d="M0 0h50v50H0z"/></clipPath></defs></svg>