<svg width="50" height="50" fill="none" xmlns="http://www.w3.org/2000/svg"><path d="M35.254 16.21c0-5.668-4.601-10.35-10.254-10.35-5.645 0-10.254 4.676-10.254 10.35 0 5.655 4.6 10.255 10.254 10.255s10.254-4.6 10.254-10.254zm-17.578 0c0-4.092 3.285-7.42 7.324-7.42s7.324 3.329 7.324 7.42c0 4.04-3.285 7.325-7.324 7.325s-7.324-3.285-7.324-7.324z" fill="#F90"/><path d="M41.113 16.21C41.113 7.324 33.898 0 25 0 16.6 0 8.887 6.71 8.887 16.21c0 5.924 5.8 14.875 9.242 19.793-3.827.77-9.242 2.756-9.242 6.673C8.887 48.276 19.318 50 25 50s16.113-1.724 16.113-7.324c0-3.917-5.415-5.903-9.242-6.673 3.425-4.893 9.242-13.862 9.242-19.792zm-29.297 0C11.816 8.009 18.66 2.93 25 2.93c7.27 0 13.184 5.958 13.184 13.28 0 6.204-8.669 18.433-13.184 24.136-4.516-5.702-13.184-17.928-13.184-24.135zm26.368 26.466c0 2.447-7.174 4.394-13.184 4.394-6.002 0-13.184-1.948-13.184-4.394 0-1.166 2.617-3.187 8.211-4.032 2.137 2.9 3.745 4.846 3.845 4.967a1.465 1.465 0 002.256 0c.1-.121 1.708-2.067 3.845-4.967 5.594.845 8.21 2.866 8.21 4.032z" fill="#F90"/></svg>