<svg width="16" height="15" fill="none" xmlns="http://www.w3.org/2000/svg"><g clip-path="url(#clip0)"><path d="M9.409 7.512l5.857-5.84a.969.969 0 000-1.375.975.975 0 00-1.378 0L8.03 6.138 2.174.298a.975.975 0 00-1.378 0 .969.969 0 000 1.373l5.857 5.841-5.857 5.841a.973.973 0 101.378 1.374l5.857-5.84 5.857 5.84a.973.973 0 001.378 0 .969.969 0 000-1.374l-5.857-5.84z" fill="#323232"/></g><defs><clipPath id="clip0"><path fill="#fff" transform="translate(.51)" d="M0 0h15.042v15H0z"/></clipPath></defs></svg>