<svg width="15" height="15" fill="none" xmlns="http://www.w3.org/2000/svg"><path d="M10.576 4.863c0-1.7-1.38-3.105-3.076-3.105-1.694 0-3.076 1.403-3.076 3.105A3.08 3.08 0 007.5 7.94a3.08 3.08 0 003.076-3.076zm-5.273 0c0-1.227.985-2.226 2.197-2.226 1.212 0 2.197.999 2.197 2.226A2.2 2.2 0 017.5 7.061a2.2 2.2 0 01-2.197-2.198z" fill="#F90"/><path d="M12.334 4.863C12.334 2.197 10.169 0 7.5 0 4.98 0 2.666 2.013 2.666 4.863c0 1.777 1.74 4.463 2.773 5.938-1.149.23-2.773.827-2.773 2.002C2.666 14.483 5.796 15 7.5 15c1.705 0 4.834-.517 4.834-2.197 0-1.175-1.625-1.771-2.773-2.002 1.028-1.468 2.773-4.159 2.773-5.938zm-8.79 0C3.545 2.403 5.599.88 7.5.88c2.18 0 3.955 1.787 3.955 3.984 0 1.861-2.6 5.53-3.955 7.24-1.355-1.71-3.955-5.378-3.955-7.24zm7.911 7.94c0 .734-2.152 1.318-3.955 1.318-1.8 0-3.955-.585-3.955-1.318 0-.35.785-.956 2.463-1.21a36.05 36.05 0 001.154 1.49.44.44 0 00.676 0c.03-.036.513-.62 1.154-1.49 1.678.254 2.463.86 2.463 1.21z" fill="#F90"/></svg>