<svg width="15" height="15" fill="none" xmlns="http://www.w3.org/2000/svg"><g clip-path="url(#clip0)"><path d="M10.78 15c-.483 0-.963-.086-1.433-.256a15.29 15.29 0 01-5.552-3.539A15.288 15.288 0 01.257 5.653a4.149 4.149 0 01-.212-2.039A4.247 4.247 0 012.232.5a4.17 4.17 0 012-.5.47.47 0 01.458.37l.735 3.434a.469.469 0 01-.126.43L4.04 5.49a12.339 12.339 0 005.469 5.468l1.257-1.257a.469.469 0 01.43-.127l3.433.736c.216.046.37.237.37.458 0 .71-.168 1.383-.5 2a4.264 4.264 0 01-3.114 2.187c-.202.03-.404.044-.605.044zM3.858.958a3.247 3.247 0 00-2.322 1.383 3.23 3.23 0 00-.397 2.992 14.217 14.217 0 008.53 8.53 3.23 3.23 0 002.991-.398 3.246 3.246 0 001.383-2.322l-2.793-.598-1.313 1.313a.469.469 0 01-.53.093A13.273 13.273 0 013.05 5.595a.469.469 0 01.092-.531l1.313-1.313L3.857.958z" fill="#F90"/></g><defs><clipPath id="clip0"><path fill="#fff" d="M0 0h15v15H0z"/></clipPath></defs></svg>