<svg width="25" height="392" fill="none" xmlns="http://www.w3.org/2000/svg"><path d="M.8 221.32v-1.6H12v1.6H.8zm2.72-12.233l8.48 3.712v1.568l-8.48 3.712v-1.6l6.8-2.912-6.8-2.976v-1.504zm-.08-4.256c0-1.173.288-2.069.864-2.688.576-.629 1.435-.944 2.576-.944H12v1.456h-1.12c.395.256.699.624.912 1.104.203.469.304 1.029.304 1.68 0 .949-.23 1.712-.688 2.288-.459.565-1.061.848-1.808.848-.747 0-1.344-.272-1.792-.816-.459-.544-.688-1.408-.688-2.592v-2.432h-.304c-.661 0-1.168.192-1.52.576-.352.384-.528.949-.528 1.696 0 .501.085.992.256 1.472.16.48.379.885.656 1.216l-1.152.64a4.534 4.534 0 01-.8-1.568 6.39 6.39 0 01-.288-1.936zm7.472.352c0-.587-.128-1.093-.384-1.52a2.284 2.284 0 00-1.12-.928H8.224v2.368c0 1.301.437 1.952 1.312 1.952.427 0 .763-.165 1.008-.496.245-.331.368-.789.368-1.376zM3.44 193.828c0-1.077.315-1.93.944-2.56.619-.64 1.53-.96 2.736-.96H12v1.536H7.296c-.821 0-1.44.198-1.856.592-.416.395-.624.96-.624 1.696 0 .832.245 1.488.736 1.968.48.48 1.173.72 2.08.72H12v1.536H3.52v-1.472H4.8a2.99 2.99 0 01-1.008-1.248c-.235-.533-.352-1.136-.352-1.808zm8.656-10.041c0 .843-.187 1.6-.56 2.272A4.136 4.136 0 0110 187.643c-.661.373-1.408.56-2.24.56-.832 0-1.573-.187-2.224-.56A3.99 3.99 0 014 186.059c-.373-.672-.56-1.429-.56-2.272 0-.843.187-1.595.56-2.256a3.88 3.88 0 011.536-1.568c.65-.384 1.392-.576 2.224-.576.832 0 1.579.192 2.24.576.65.373 1.163.896 1.536 1.568.373.661.56 1.413.56 2.256zm-1.344 0a2.87 2.87 0 00-.368-1.456 2.707 2.707 0 00-1.056-1.024c-.459-.245-.981-.368-1.568-.368-.587 0-1.104.123-1.552.368-.459.245-.81.587-1.056 1.024a2.869 2.869 0 00-.368 1.456c0 .544.123 1.035.368 1.472.245.427.597.768 1.056 1.024.448.245.965.368 1.552.368.587 0 1.11-.123 1.568-.368a2.86 2.86 0 001.056-1.024c.245-.437.368-.928.368-1.472zM3.52 169.993l8.48 3.712v1.568l-8.48 3.712v-1.6l6.8-2.912-6.8-2.976v-1.504zm20.576 49.119c0 .693-.09 1.36-.272 2-.192.64-.432 1.141-.72 1.504l-1.216-.64c.267-.373.48-.827.64-1.36.16-.533.24-1.072.24-1.616 0-1.344-.384-2.016-1.152-2.016a.747.747 0 00-.608.272c-.15.181-.256.411-.32.688a11.91 11.91 0 00-.24 1.152c-.107.683-.23 1.243-.368 1.68a2.578 2.578 0 01-.704 1.104c-.33.309-.795.464-1.392.464-.768 0-1.381-.32-1.84-.96-.47-.64-.704-1.499-.704-2.576 0-.565.07-1.131.208-1.696.139-.565.325-1.029.56-1.392l1.216.656c-.448.693-.672 1.509-.672 2.448 0 .651.107 1.147.32 1.488.213.341.496.512.848.512.277 0 .496-.096.656-.288a1.83 1.83 0 00.352-.704c.075-.288.16-.688.256-1.2.117-.683.245-1.232.384-1.648.128-.427.352-.789.672-1.088.32-.299.768-.448 1.344-.448.768 0 1.381.331 1.84.992.448.651.672 1.541.672 2.672zm-.592-10.352c.192.224.341.502.448.832.096.331.144.672.144 1.024 0 .854-.23 1.515-.688 1.984-.459.47-1.115.704-1.968.704h-4.656v1.44H15.52v-1.44h-1.856v-1.536h1.856v-2.432h1.264v2.432h4.592c.459 0 .81-.112 1.056-.336.245-.234.368-.565.368-.992 0-.469-.133-.869-.4-1.2l1.104-.48zm-7.984-9.761H24v1.456h-1.28c.437.31.779.72 1.024 1.232.235.502.352 1.051.352 1.648 0 1.131-.31 2.022-.928 2.672-.63.651-1.552.976-2.768.976h-4.88v-1.536h4.704c.821 0 1.445-.197 1.872-.592.416-.394.624-.96.624-1.696 0-.81-.245-1.45-.736-1.92-.49-.469-1.184-.704-2.08-.704H15.52v-1.536zm-3.392-10.924H24v1.472h-1.344c.47.342.827.774 1.072 1.296.245.523.368 1.099.368 1.728 0 .822-.181 1.558-.544 2.208a3.964 3.964 0 01-1.52 1.536c-.661.363-1.419.544-2.272.544-.853 0-1.605-.181-2.256-.544a3.964 3.964 0 01-1.52-1.536c-.363-.65-.544-1.386-.544-2.208 0-.608.117-1.168.352-1.68a3.2 3.2 0 011.008-1.28h-4.672v-1.536zm10.624 4.368a2.93 2.93 0 00-.368-1.456 2.714 2.714 0 00-1.056-1.024c-.459-.245-.981-.368-1.568-.368-.587 0-1.104.123-1.552.368a2.58 2.58 0 00-1.056 1.024 2.928 2.928 0 00-.368 1.456c0 .544.123 1.035.368 1.472.245.427.597.768 1.056 1.024.448.246.965.368 1.552.368.587 0 1.11-.122 1.568-.368a2.86 2.86 0 001.056-1.024c.245-.437.368-.928.368-1.472zm-7.232-7.274v-1.536H24v1.536h-8.48zm-1.632-.768c0 .299-.096.549-.288.752a.958.958 0 01-.704.288.958.958 0 01-.704-.288 1.021 1.021 0 01-.304-.752c0-.299.096-.544.288-.736a.882.882 0 01.688-.304c.288 0 .533.101.736.304a.996.996 0 01.288.736zm10.208-7.333c0 .843-.187 1.6-.56 2.272A4.136 4.136 0 0122 180.924c-.661.374-1.408.56-2.24.56-.832 0-1.573-.186-2.224-.56A3.99 3.99 0 0116 179.34c-.373-.672-.56-1.429-.56-2.272 0-.842.187-1.594.56-2.256a3.886 3.886 0 011.536-1.568c.65-.384 1.392-.576 2.224-.576.832 0 1.579.192 2.24.576.65.374 1.163.896 1.536 1.568.373.662.56 1.414.56 2.256zm-1.344 0a2.87 2.87 0 00-.368-1.456 2.714 2.714 0 00-1.056-1.024c-.459-.245-.981-.368-1.568-.368-.587 0-1.104.123-1.552.368a2.58 2.58 0 00-1.056 1.024 2.87 2.87 0 00-.368 1.456c0 .544.123 1.035.368 1.472.245.427.597.768 1.056 1.024.448.246.965.368 1.552.368.587 0 1.11-.122 1.568-.368a2.86 2.86 0 001.056-1.024c.245-.437.368-.928.368-1.472z" fill="#CCC" fill-opacity=".4"/><path stroke="#CCC" stroke-opacity=".4" stroke-width="2" d="M11 150V0m0 392V242"/></svg>