<svg width="32" height="31" fill="none" xmlns="http://www.w3.org/2000/svg"><path d="M24.072.375H7.802C3.846.375.626 3.595.626 7.553v16.27C.625 27.78 3.845 31 7.803 31h16.27c3.957 0 7.177-3.22 7.177-7.178V7.552c0-3.957-3.22-7.177-7.178-7.177zm4.785 23.447a4.79 4.79 0 01-4.785 4.785H7.802a4.79 4.79 0 01-4.784-4.785V7.552a4.79 4.79 0 014.785-4.784h16.27a4.79 4.79 0 014.784 4.785v16.27zM15.937 8.928a6.767 6.767 0 00-6.759 6.76 6.767 6.767 0 006.76 6.758 6.767 6.767 0 006.758-6.759 6.767 6.767 0 00-6.759-6.759zm0 11.126a4.371 4.371 0 01-4.366-4.366 4.371 4.371 0 014.367-4.367 4.371 4.371 0 014.366 4.367 4.371 4.371 0 01-4.366 4.366zm9.411-12.282a1.495 1.495 0 11-2.99 0 1.495 1.495 0 012.99 0z" fill="#CCC" fill-opacity=".4"/></svg>