<svg width="35" height="35" fill="none" xmlns="http://www.w3.org/2000/svg"><g clip-path="url(#clip0)"><path d="M34.46 3.477c-.428-.523-1.068-.811-1.804-.811-.4 0-.823.084-1.258.25L1.77 14.226c-1.572.6-1.784 1.5-1.77 1.984.013.483.276 1.37 1.88 1.88l.028.009 6.146 1.759 3.323 9.503c.453 1.296 1.47 2.1 2.655 2.1.747 0 1.481-.312 2.124-.904l3.802-3.5 5.513 4.44h.002l.052.043.015.011c.613.476 1.282.727 1.935.727 1.277 0 2.293-.945 2.59-2.407L34.92 5.9c.195-.962.031-1.823-.46-2.424zM10.11 19.523l11.857-6.056-7.383 7.844a1.04 1.04 0 00-.249.457l-1.423 5.766-2.802-8.01zm4.658 9.525c-.05.045-.099.086-.148.123l1.32-5.35 2.403 1.935-3.575 3.292zM32.91 5.494l-4.854 23.97c-.047.23-.196.763-.58.763-.19 0-.428-.104-.672-.291l-6.247-5.03a.01.01 0 00-.003-.003l-3.717-2.993 10.676-11.344A1.025 1.025 0 0026.3 8.95L8.74 17.92l-6.229-1.782L32.13 4.832c.25-.095.425-.115.527-.115.063 0 .175.007.216.058.054.067.124.293.038.719z" fill="#CCC" fill-opacity=".4"/></g><defs><clipPath id="clip0"><path fill="#fff" d="M0 0h35v35H0z"/></clipPath></defs></svg>