<svg width="35" height="35" fill="none" xmlns="http://www.w3.org/2000/svg"><g clip-path="url(#clip0)"><path d="M17.712 28.438c5.063 0 3.257-3.206 3.648-4.128-.006-.688-.011-1.35.012-1.752.32.09 1.078.474 2.64 1.993 2.415 2.436 3.031 3.887 4.981 3.887h3.59c1.137 0 1.729-.471 2.025-.867.286-.382.566-1.053.26-2.097-.801-2.514-5.47-6.855-5.761-7.313a4.08 4.08 0 01.15-.256h-.003c.922-1.217 4.44-6.488 4.957-8.596a.027.027 0 00.003-.012c.28-.963.023-1.587-.242-1.94-.4-.528-1.035-.795-1.895-.795H28.49c-1.202 0-2.114.606-2.574 1.71-.772 1.961-2.939 5.995-4.563 7.423a93.421 93.421 0 01.01-4.715c.052-2.239.221-4.418-2.102-4.418h-5.64c-1.456 0-2.849 1.59-1.34 3.477 1.318 1.654.473 2.576.758 7.164-1.109-1.189-3.08-4.399-4.475-8.501-.39-1.11-.983-2.138-2.65-2.138H2.326C.869 6.564 0 7.357 0 8.686c0 2.984 6.605 19.752 17.712 19.752zM5.914 8.75c.316 0 .348 0 .583.667 1.428 4.204 4.63 10.425 6.97 10.425 1.756 0 1.756-1.8 1.756-2.479v-5.398c-.097-1.787-.748-2.676-1.175-3.216l5.116.006c.003.025-.03 5.972.014 7.413 0 2.046 1.625 3.218 4.161.651 2.676-3.02 4.527-7.535 4.601-7.719.11-.262.204-.351.548-.351h3.605c-.001.004-.001.009-.003.013-.328 1.531-3.567 6.411-4.65 7.926-.018.023-.034.048-.05.073-.477.779-.865 1.64.066 2.85h.001c.085.102.305.34.626.673.997 1.03 4.418 4.55 4.722 5.95-.202.032-.42.01-3.81.017-.723 0-1.287-1.08-3.441-3.253-1.937-1.884-3.194-2.654-4.339-2.654-2.222 0-2.06 1.804-2.04 3.986.008 2.365-.007 1.617.009 1.766-.13.05-.502.153-1.471.153-9.254 0-15.28-14.687-15.511-17.494.08-.007 1.184-.003 3.713-.005z" fill="#CCC" fill-opacity=".4"/></g><defs><clipPath id="clip0"><path fill="#fff" d="M0 0h35v35H0z"/></clipPath></defs></svg>